HIERARCHY
ROOT Hips
{
	OFFSET 0.000000 71.427986 0.000000
	CHANNELS 6 Xposition Yposition Zposition Xrotation Yrotation Zrotation
	JOINT Pelvis
	{
		OFFSET 0.000000 0.000000 0.000000
		CHANNELS 3 Xrotation Yrotation Zrotation
		JOINT LeftUpLeg
		{
			OFFSET 6.797100 -2.508499 -1.318700
			CHANNELS 3 Xrotation Yrotation Zrotation
			JOINT LeftLeg
			{
				OFFSET 0.069008 -29.241863 0.690200
				CHANNELS 3 Xrotation Yrotation Zrotation
				JOINT LeftFoot
				{
					OFFSET -0.069008 -29.568123 -0.266800
					CHANNELS 3 Xrotation Yrotation Zrotation
					JOINT LeftToeBase
					{
						OFFSET 3.145500 -8.631000 16.059900
						CHANNELS 3 Xrotation Yrotation Zrotation
						End Site
						{
							OFFSET 0.000000 18.501587 0.000000
						}
					}
				}
			}
			JOINT Left_ShortSleeve
			{
				OFFSET 0.265923 -10.480953 1.153800
				CHANNELS 3 Xrotation Yrotation Zrotation
				End Site
				{
					OFFSET 1.725763 19.823879 0.000000
				}
			}
		}
		JOINT RightUpLeg
		{
			OFFSET -6.797100 -2.508499 -1.318700
			CHANNELS 3 Xrotation Yrotation Zrotation
			JOINT RightLeg
			{
				OFFSET -0.082453 -29.241932 0.688000
				CHANNELS 3 Xrotation Yrotation Zrotation
				JOINT RightFoot
				{
					OFFSET 0.082453 -29.568058 -0.264600
					CHANNELS 3 Xrotation Yrotation Zrotation
					JOINT RightToeBase
					{
						OFFSET -3.115300 -8.682800 16.113400
						CHANNELS 3 Xrotation Yrotation Zrotation
						End Site
						{
							OFFSET 0.000000 18.567114 0.000000
						}
					}
				}
			}
			JOINT Right_ShortSleeve
			{
				OFFSET -0.265923 -10.480953 1.153800
				CHANNELS 3 Xrotation Yrotation Zrotation
				End Site
				{
					OFFSET -1.725766 19.823910 0.000000
				}
			}
		}
	}
	JOINT Spine
	{
		OFFSET 0.000000 13.368103 0.470500
		CHANNELS 3 Xrotation Yrotation Zrotation
		JOINT Spine1
		{
			OFFSET 0.147000 13.837402 0.538800
			CHANNELS 3 Xrotation Yrotation Zrotation
			JOINT Spine2
			{
				OFFSET 0.168000 16.242897 -1.435500
				CHANNELS 3 Xrotation Yrotation Zrotation
				JOINT Neck
				{
					OFFSET 0.217200 18.631500 -1.679100
					CHANNELS 3 Xrotation Yrotation Zrotation
					JOINT Head
					{
						OFFSET 0.000000 6.599396 1.385900
						CHANNELS 3 Xrotation Yrotation Zrotation
						JOINT Hat
						{
							OFFSET -0.532200 27.220596 -10.096100
							CHANNELS 3 Xrotation Yrotation Zrotation
							End Site
							{
								OFFSET 0.000000 22.029861 0.000000
							}
						}
						JOINT HairD
						{
							OFFSET -10.777400 17.437393 -1.325900
							CHANNELS 3 Xrotation Yrotation Zrotation
							JOINT HairD1
							{
								OFFSET -3.290299 -11.051193 1.062200
								CHANNELS 3 Xrotation Yrotation Zrotation
								End Site
								{
									OFFSET 0.000000 11.579437 0.000000
								}
							}
						}
						JOINT HairB
						{
							OFFSET -10.777400 17.437393 1.467900
							CHANNELS 3 Xrotation Yrotation Zrotation
							JOINT HairB1
							{
								OFFSET -1.561200 -12.956299 3.590200
								CHANNELS 3 Xrotation Yrotation Zrotation
								End Site
								{
									OFFSET 0.000000 13.534866 0.000000
								}
							}
						}
						JOINT HairA
						{
							OFFSET 9.713100 17.437393 1.467900
							CHANNELS 3 Xrotation Yrotation Zrotation
							JOINT HairA1
							{
								OFFSET 1.561200 -12.956299 3.590200
								CHANNELS 3 Xrotation Yrotation Zrotation
								End Site
								{
									OFFSET 0.000000 13.534866 0.000000
								}
							}
						}
						JOINT HairC
						{
							OFFSET 9.713100 17.437393 -1.325900
							CHANNELS 3 Xrotation Yrotation Zrotation
							JOINT HairC1
							{
								OFFSET 3.290300 -11.051193 1.062200
								CHANNELS 3 Xrotation Yrotation Zrotation
								End Site
								{
									OFFSET 0.000000 11.579437 0.000000
								}
							}
						}
					}
				}
				JOINT LeftShoulder
				{
					OFFSET 5.101800 15.108002 -2.763700
					CHANNELS 3 Xrotation Yrotation Zrotation
					JOINT LeftArm
					{
						OFFSET 9.825497 2.506317 -1.597400
						CHANNELS 3 Xrotation Yrotation Zrotation
						JOINT LeftForeArm
						{
							OFFSET 21.966244 0.000000 0.000000
							CHANNELS 3 Xrotation Yrotation Zrotation
							JOINT LeftHand
							{
								OFFSET 33.879036 0.000000 0.000000
								CHANNELS 3 Xrotation Yrotation Zrotation
								JOINT LeftHandThumb1
								{
									OFFSET 6.715286 -2.359680 3.363841
									CHANNELS 3 Xrotation Yrotation Zrotation
									JOINT LeftHandThumb2
									{
										OFFSET 2.507072 -1.447464 1.447461
										CHANNELS 3 Xrotation Yrotation Zrotation
										JOINT LeftHandThumb3
										{
											OFFSET 2.898338 -1.673355 1.673357
											CHANNELS 3 Xrotation Yrotation Zrotation
											End Site
											{
												OFFSET -0.295959 3.727692 -0.131651
											}
										}
									}
								}
								JOINT LeftHandIndex1
								{
									OFFSET 14.190811 -0.254547 3.840278
									CHANNELS 3 Xrotation Yrotation Zrotation
									JOINT LeftHandIndex2
									{
										OFFSET 3.551727 0.000000 -0.000000
										CHANNELS 3 Xrotation Yrotation Zrotation
										JOINT LeftHandIndex3
										{
											OFFSET 2.894196 0.000000 0.000000
											CHANNELS 3 Xrotation Yrotation Zrotation
											End Site
											{
												OFFSET -1.000603 2.690872 0.366626
											}
										}
									}
								}
								JOINT LeftHandMiddle1
								{
									OFFSET 13.776489 0.000000 0.000000
									CHANNELS 3 Xrotation Yrotation Zrotation
									JOINT LeftHandMiddle2
									{
										OFFSET 3.438232 0.000000 0.000000
										CHANNELS 3 Xrotation Yrotation Zrotation
										JOINT LeftHandMiddle3
										{
											OFFSET 3.691551 0.000000 0.000000
											CHANNELS 3 Xrotation Yrotation Zrotation
											End Site
											{
												OFFSET -1.082298 3.499527 0.457670
											}
										}
									}
								}
								JOINT LeftHandRing1
								{
									OFFSET 13.966164 -0.268127 -3.067488
									CHANNELS 3 Xrotation Yrotation Zrotation
									JOINT LeftHandRing2
									{
										OFFSET 3.162567 0.000000 0.000000
										CHANNELS 3 Xrotation Yrotation Zrotation
										JOINT LeftHandRing3
										{
											OFFSET 3.324348 0.000000 0.000000
											CHANNELS 3 Xrotation Yrotation Zrotation
											End Site
											{
												OFFSET -0.861900 3.184998 0.405154
											}
										}
									}
								}
								JOINT LeftHandPinky1
								{
									OFFSET 13.131393 -0.168503 -5.746925
									CHANNELS 3 Xrotation Yrotation Zrotation
									JOINT LeftHandPinky2
									{
										OFFSET 2.849182 0.000000 0.000000
										CHANNELS 3 Xrotation Yrotation Zrotation
										JOINT LeftHandPinky3
										{
											OFFSET 2.805038 0.000000 0.000000
											CHANNELS 3 Xrotation Yrotation Zrotation
											End Site
											{
												OFFSET -0.882500 2.642609 0.325652
											}
										}
									}
								}
							}
							JOINT Left_Sleeve
							{
								OFFSET 6.592125 -0.646545 0.805568
								CHANNELS 3 Xrotation Yrotation Zrotation
								End Site
								{
									OFFSET -0.000179 20.275787 -0.000000
								}
							}
						}
					}
				}
				JOINT RightShoulder
				{
					OFFSET -5.731700 15.108002 -2.763700
					CHANNELS 3 Xrotation Yrotation Zrotation
					JOINT RightArm
					{
						OFFSET -9.825497 2.506317 -1.597400
						CHANNELS 3 Xrotation Yrotation Zrotation
						JOINT RightForeArm
						{
							OFFSET -21.966242 0.000000 0.000000
							CHANNELS 3 Xrotation Yrotation Zrotation
							JOINT RightHand
							{
								OFFSET -33.879032 0.000000 0.000000
								CHANNELS 3 Xrotation Yrotation Zrotation
								JOINT RightHandThumb1
								{
									OFFSET -6.715286 -2.359680 3.363841
									CHANNELS 3 Xrotation Yrotation Zrotation
									JOINT RightHandThumb2
									{
										OFFSET -2.507072 -1.447464 1.447461
										CHANNELS 3 Xrotation Yrotation Zrotation
										JOINT RightHandThumb3
										{
											OFFSET -2.898338 -1.673355 1.673357
											CHANNELS 3 Xrotation Yrotation Zrotation
											End Site
											{
												OFFSET 0.295959 3.727692 -0.131651
											}
										}
									}
								}
								JOINT RightHandIndex1
								{
									OFFSET -14.190811 -0.254547 3.840278
									CHANNELS 3 Xrotation Yrotation Zrotation
									JOINT RightHandIndex2
									{
										OFFSET -3.551727 0.000000 -0.000000
										CHANNELS 3 Xrotation Yrotation Zrotation
										JOINT RightHandIndex3
										{
											OFFSET -2.894196 0.000000 0.000000
											CHANNELS 3 Xrotation Yrotation Zrotation
											End Site
											{
												OFFSET 1.000603 2.690872 0.366626
											}
										}
									}
								}
								JOINT RightHandMiddle1
								{
									OFFSET -13.776489 0.000000 0.000000
									CHANNELS 3 Xrotation Yrotation Zrotation
									JOINT RightHandMiddle2
									{
										OFFSET -3.438232 0.000000 0.000000
										CHANNELS 3 Xrotation Yrotation Zrotation
										JOINT RightHandMiddle3
										{
											OFFSET -3.691551 0.000000 0.000000
											CHANNELS 3 Xrotation Yrotation Zrotation
											End Site
											{
												OFFSET 1.082298 3.499527 0.457670
											}
										}
									}
								}
								JOINT RightHandRing1
								{
									OFFSET -13.966164 -0.268127 -3.067488
									CHANNELS 3 Xrotation Yrotation Zrotation
									JOINT RightHandRing2
									{
										OFFSET -3.162567 0.000000 0.000000
										CHANNELS 3 Xrotation Yrotation Zrotation
										JOINT RightHandRing3
										{
											OFFSET -3.324348 0.000000 0.000000
											CHANNELS 3 Xrotation Yrotation Zrotation
											End Site
											{
												OFFSET 0.861900 3.184998 0.405154
											}
										}
									}
								}
								JOINT RightHandPinky1
								{
									OFFSET -13.131393 -0.168503 -5.746925
									CHANNELS 3 Xrotation Yrotation Zrotation
									JOINT RightHandPinky2
									{
										OFFSET -2.849182 0.000000 0.000000
										CHANNELS 3 Xrotation Yrotation Zrotation
										JOINT RightHandPinky3
										{
											OFFSET -2.805038 0.000000 0.000000
											CHANNELS 3 Xrotation Yrotation Zrotation
											End Site
											{
												OFFSET 0.882500 2.642609 0.325652
											}
										}
									}
								}
							}
							JOINT Right_Sleeve
							{
								OFFSET -6.592125 -0.646545 0.805568
								CHANNELS 3 Xrotation Yrotation Zrotation
								End Site
								{
									OFFSET 0.000179 20.275787 -0.000000
								}
							}
						}
					}
				}
				JOINT Bind_Right_JacketString
				{
					OFFSET -3.534800 11.969597 7.200700
					CHANNELS 3 Xrotation Yrotation Zrotation
					JOINT Bind_Right_JacketString1
					{
						OFFSET -0.319900 -6.102600 2.794100
						CHANNELS 3 Xrotation Yrotation Zrotation
						End Site
						{
							OFFSET 0.000000 6.719452 0.000000
						}
					}
				}
				JOINT Bind_Left_JacketString
				{
					OFFSET 2.904800 11.969597 7.200700
					CHANNELS 3 Xrotation Yrotation Zrotation
					JOINT Bind_Left_JacketString1
					{
						OFFSET 0.364800 -5.904503 3.186800
						CHANNELS 3 Xrotation Yrotation Zrotation
						End Site
						{
							OFFSET 0.000000 6.719513 0.000000
						}
					}
				}
				JOINT HairE
				{
					OFFSET 5.915200 17.612701 -11.592200
					CHANNELS 3 Xrotation Yrotation Zrotation
					JOINT HairE1
					{
						OFFSET 0.289200 -7.171898 -1.284500
						CHANNELS 3 Xrotation Yrotation Zrotation
						End Site
						{
							OFFSET 0.000000 7.291756 0.000000
						}
					}
				}
				JOINT HairF
				{
					OFFSET -0.864800 17.612701 -11.592200
					CHANNELS 3 Xrotation Yrotation Zrotation
					JOINT HairF1
					{
						OFFSET 0.000000 -14.087097 -2.127501
						CHANNELS 3 Xrotation Yrotation Zrotation
						End Site
						{
							OFFSET 0.000000 14.246841 0.000000
						}
					}
				}
				JOINT HairG
				{
					OFFSET -8.087700 17.612701 -11.592200
					CHANNELS 3 Xrotation Yrotation Zrotation
					JOINT HairG1
					{
						OFFSET -0.293600 -6.081398 -0.910100
						CHANNELS 3 Xrotation Yrotation Zrotation
						End Site
						{
							OFFSET 0.000000 6.156120 0.000000
						}
					}
				}
			}
		}
	}
	JOINT Pouch
	{
		OFFSET 0.000000 4.394501 10.847300
		CHANNELS 3 Xrotation Yrotation Zrotation
		End Site
		{
			OFFSET 0.000000 21.880577 0.000000
		}
	}
	JOINT Bag
	{
		OFFSET -13.229000 4.813004 -0.593300
		CHANNELS 3 Xrotation Yrotation Zrotation
		End Site
		{
			OFFSET 0.000000 21.880577 0.000000
		}
	}
	JOINT OccupyGuyFacialAnim_Joint
	{
		OFFSET 1.000000 -70.206398 -1.655000
		CHANNELS 3 Xrotation Yrotation Zrotation
		End Site
		{
			OFFSET 0.000000 21.880577 0.000000
		}
	}
}
MOTION
Frames: 4
Frame Time: 0.033333
10.424167 64.517944 20.679398 -2.412050 -18.487451 -3.137218 -0.000000 -0.000001 -0.000000 -32.706340 26.098317 7.335817 52.787083 -6.889118 3.093977 -20.040033 -4.775795 10.214543 0.000000 -0.000000 -0.000000 0.000004 -0.000001 0.000001 -31.096752 0.173525 -19.364792 67.267910 -11.512468 -3.891554 -13.064806 1.803897 18.509326 0.000001 -0.000001 0.000001 0.000002 0.000001 -0.000003 12.333833 -0.158311 3.122362 9.097004 2.716248 1.013933 -2.271983 2.790899 2.569975 15.829322 -8.234475 10.017065 -5.080529 0.728451 -3.012547 0.000001 0.000001 -0.000002 0.000001 0.000001 -0.000002 0.000001 0.000001 -0.000003 0.000001 0.000001 -0.000003 0.000001 -0.000000 -0.000001 0.000001 0.000001 -0.000003 0.000001 -0.000000 -0.000001 0.000001 0.000001 -0.000002 0.000001 0.000001 -0.000002 -0.272974 -25.874749 3.317630 -11.787692 7.115037 -35.976338 -19.807055 -21.410312 -13.899384 -0.367536 2.480665 -7.252669 14.559682 -9.850664 14.318721 -0.830674 12.824224 -8.251225 -0.000002 -0.000002 0.000000 2.864528 1.414607 -27.369389 -0.368995 -1.553501 -36.117122 -0.000004 -0.000001 -0.000000 2.197984 4.556479 -31.392485 -0.921028 -2.883674 -60.273872 0.000001 0.000004 0.000005 2.392532 6.717536 -40.849449 -2.343532 -2.360678 -65.969526 -0.000004 0.000000 0.000002 1.176966 5.147380 -49.185504 -2.397095 -2.117860 -63.165665 0.000000 -0.000000 -0.000003 -0.000000 -0.000001 0.000001 3.718195 0.809450 4.264834 -7.392491 -32.623241 29.638568 -18.225359 35.452589 14.771285 -7.660884 8.602391 2.989309 55.149546 18.649504 -29.698270 -0.442530 -14.180540 7.313171 0.000000 -0.000001 0.000000 5.673414 7.584993 36.844154 1.050458 3.824532 68.900216 -0.000003 -0.000000 0.000002 -0.125682 1.886070 45.000776 -1.169022 3.204650 68.417677 0.000001 0.000001 0.000001 -5.311992 1.216651 58.508821 -0.745213 1.667572 48.011268 -0.000000 -0.000002 0.000001 -7.756793 -9.376463 47.263977 -0.526057 1.541560 45.600552 0.000000 0.000003 -0.000004 0.000001 0.000001 -0.000000 0.000000 0.000000 0.000001 0.000000 -0.000000 -0.000001 0.000000 0.000000 0.000000 0.000000 0.000000 0.000000 0.000000 0.000000 0.000001 0.000000 -0.000000 -0.000000 0.000000 0.000000 0.000000 0.000000 0.000000 0.000000 0.000000 0.000000 0.000001 0.000000 -0.000000 -0.000000 -0.000000 -0.000001 -0.000000 -0.000000 -0.000001 -0.000000 -0.000000 -0.000001 -0.000000 
9.314214 64.230438 18.667150 -1.242721 -23.804464 -2.233917 0.000000 -0.000000 -0.000000 -37.341112 28.398045 11.334891 53.528589 -6.288097 3.168645 -19.010090 -3.771817 8.559704 -0.000000 0.000000 -0.000000 0.000002 -0.000000 -0.000000 -22.260795 -1.490967 -23.275931 56.564871 -10.570004 -4.598599 -12.653330 1.926933 19.129545 -0.000001 0.000001 0.000000 0.000003 -0.000002 -0.000001 11.908422 0.667155 2.596035 8.244973 4.058682 0.585681 -3.198690 4.153859 2.317687 16.005814 -7.071294 9.280075 -5.437108 2.661545 -3.354660 0.000001 -0.000000 -0.000001 0.000001 -0.000000 -0.000001 0.000001 -0.000000 -0.000001 0.000001 -0.000000 -0.000001 -0.000002 -0.000001 -0.000002 0.000001 -0.000000 -0.000001 -0.000002 -0.000001 -0.000002 0.000001 -0.000000 -0.000001 0.000001 -0.000000 -0.000001 -0.595296 -23.076496 2.659446 -10.707635 8.126954 -38.593806 -18.250597 -19.583204 -12.209700 0.321290 1.813726 -8.162943 14.926636 -9.917246 14.209163 -0.947408 12.503389 -8.242953 -0.000001 -0.000000 -0.000002 2.389624 1.194756 -24.551429 -0.274802 -1.416805 -32.546688 -0.000004 0.000000 -0.000002 2.156181 4.597394 -28.263280 -0.773045 -2.777333 -56.652550 0.000001 0.000001 0.000004 2.508195 6.854550 -37.913827 -2.148965 -2.282387 -62.069884 0.000000 0.000002 0.000000 1.269743 5.194049 -46.318597 -2.150858 -2.014586 -58.387626 0.000001 -0.000003 0.000002 -0.000000 0.000001 -0.000000 2.889741 3.756746 2.270831 -8.049927 -31.138474 30.114676 -17.780722 33.440350 13.785726 -7.477635 11.890246 3.501411 55.149543 18.649504 -29.698264 -0.442528 -14.180542 7.313168 -0.000001 -0.000001 0.000000 5.673415 7.584993 36.844158 1.050455 3.824528 68.900230 0.000003 0.000001 0.000007 -0.125685 1.886071 45.000773 -1.169023 3.204650 68.417684 0.000001 0.000003 0.000003 -5.311987 1.216650 58.508821 -0.745210 1.667569 48.011264 -0.000001 -0.000000 -0.000002 -7.756791 -9.376466 47.263977 -0.526063 1.541555 45.600549 0.000002 0.000004 0.000001 0.000001 -0.000001 0.000001 -0.000001 -0.000001 -0.000000 -0.000001 -0.000001 0.000001 -0.000001 -0.000001 0.000000 -0.000001 -0.000001 0.000000 -0.000001 -0.000001 -0.000000 -0.000001 -0.000001 0.000001 -0.000001 -0.000001 0.000000 -0.000001 -0.000001 0.000000 -0.000001 -0.000001 -0.000000 -0.000001 -0.000001 0.000001 0.000000 -0.000000 -0.000000 0.000000 -0.000000 -0.000000 0.000000 -0.000000 -0.000000 
8.104791 64.107475 17.000126 0.104063 -29.698649 -1.568223 -0.000000 0.000001 -0.000000 -41.547283 29.816040 15.963950 53.841920 -5.261811 3.256068 -18.266170 -2.394456 6.333130 -0.000000 0.000000 0.000000 -0.000000 0.000000 -0.000000 -16.182615 -2.762984 -25.752938 46.660106 -10.382039 -5.084390 -12.130146 2.038562 19.183256 -0.000000 -0.000001 0.000001 0.000001 0.000000 -0.000001 11.490795 1.497596 2.052593 7.409224 5.376377 0.114746 -4.112250 5.493795 2.016968 15.967515 -5.617957 8.826803 -5.456826 5.086428 -4.355449 0.000001 -0.000001 -0.000000 0.000001 -0.000001 -0.000000 0.000001 -0.000001 0.000001 0.000001 -0.000001 0.000001 -0.000001 -0.000001 0.000000 0.000001 -0.000001 0.000001 -0.000001 -0.000001 0.000000 0.000001 -0.000001 -0.000000 0.000001 -0.000001 -0.000000 -0.602862 -20.597820 2.929763 -9.299802 9.852709 -41.390578 -18.029591 -17.905326 -12.207396 1.562963 -0.360080 -6.889735 15.410544 -9.925116 14.073434 -1.032930 12.217407 -8.250075 0.000003 -0.000002 0.000003 1.667677 0.644724 -21.029690 -0.174780 -1.248028 -28.327238 -0.000003 -0.000000 -0.000000 2.093227 4.617925 -24.626433 -0.563714 -2.604399 -51.242036 0.000003 -0.000000 0.000001 2.609669 6.984574 -34.381328 -1.883748 -2.145216 -56.527124 -0.000001 0.000003 -0.000005 1.385145 5.268583 -42.818043 -1.861978 -1.848849 -52.426763 0.000000 0.000002 0.000001 -0.000001 -0.000001 0.000001 2.108592 6.461281 0.913138 -9.131686 -28.262279 31.413987 -16.873593 28.557996 11.520081 -6.732515 16.859919 4.576699 55.149546 18.649507 -29.698267 -0.442530 -14.180542 7.313171 0.000000 -0.000002 0.000000 5.673416 7.584993 36.844154 1.050457 3.824528 68.900223 0.000001 -0.000002 -0.000000 -0.125681 1.886071 45.000773 -1.169023 3.204654 68.417684 -0.000001 0.000002 -0.000000 -5.311986 1.216650 58.508821 -0.745211 1.667570 48.011268 0.000002 -0.000001 0.000002 -7.756791 -9.376467 47.263980 -0.526063 1.541560 45.600556 -0.000003 -0.000000 -0.000001 0.000000 0.000000 -0.000002 -0.000001 -0.000000 0.000000 -0.000001 -0.000000 0.000000 -0.000001 -0.000000 0.000000 -0.000001 -0.000000 0.000000 -0.000001 -0.000000 0.000000 -0.000001 -0.000000 0.000000 -0.000001 -0.000000 0.000000 -0.000001 -0.000000 0.000000 -0.000001 -0.000000 0.000000 -0.000001 -0.000000 0.000000 -0.000000 0.000001 -0.000000 -0.000000 0.000001 -0.000000 -0.000000 0.000001 -0.000000 
6.901000 64.056534 15.240697 1.442844 -35.522806 -0.609774 0.000000 0.000001 0.000000 -45.067016 30.796005 20.445770 53.529347 -4.132994 3.327530 -17.096839 -0.903973 3.870209 -0.000000 -0.000000 0.000000 -0.000002 0.000000 -0.000001 -14.084627 -2.799911 -26.846149 40.721776 -8.540491 -5.662799 -12.067157 1.850060 18.860987 0.000000 0.000000 -0.000001 -0.000002 0.000001 -0.000001 11.123676 2.163511 1.509917 6.922244 6.329607 -0.467844 -4.668966 6.479285 1.556465 15.497593 -3.893466 8.127042 -4.985779 7.715508 -5.500673 0.000001 -0.000001 0.000000 0.000001 -0.000001 0.000000 0.000001 -0.000001 -0.000000 0.000001 -0.000001 -0.000000 -0.000001 0.000001 -0.000000 0.000001 -0.000001 -0.000000 -0.000001 0.000001 -0.000000 0.000001 -0.000001 0.000000 0.000001 -0.000001 0.000000 -0.709657 -18.614110 2.794089 -7.063768 12.575579 -43.960781 -18.752768 -18.647718 -12.864265 1.493656 -1.328483 -4.179812 15.967666 -9.889351 13.920012 -1.091954 11.966987 -8.268409 0.000002 0.000005 -0.000001 0.861975 -0.207091 -17.093365 -0.080826 -1.056787 -23.744536 0.000001 0.000002 0.000000 2.027148 4.626136 -20.715747 -0.326913 -2.372656 -44.635115 -0.000001 0.000002 0.000001 2.703252 7.123949 -30.504902 -1.590371 -1.942871 -49.903742 0.000000 -0.000001 -0.000002 1.515229 5.382657 -38.944793 -1.569064 -1.618421 -45.750291 0.000001 -0.000004 -0.000005 0.000002 -0.000001 0.000000 1.173263 9.669203 0.172514 -10.585360 -25.090831 32.898972 -16.082133 22.958875 9.088484 -6.159751 21.860944 5.611479 55.149546 18.649504 -29.698267 -0.442529 -14.180548 7.313170 -0.000001 -0.000001 -0.000000 5.673419 7.584991 36.844154 1.050455 3.824533 68.900230 0.000002 0.000000 0.000002 -0.125680 1.886068 45.000770 -1.169026 3.204651 68.417684 0.000003 0.000001 -0.000002 -5.311990 1.216650 58.508821 -0.745209 1.667568 48.011268 0.000001 -0.000003 0.000001 -7.756796 -9.376467 47.263977 -0.526057 1.541551 45.600549 -0.000000 -0.000001 -0.000003 -0.000001 -0.000002 0.000001 -0.000000 0.000000 -0.000000 -0.000000 -0.000001 0.000001 -0.000000 0.000000 -0.000000 -0.000000 0.000000 -0.000000 -0.000000 0.000000 -0.000000 -0.000000 -0.000001 0.000001 -0.000000 0.000000 -0.000000 -0.000000 0.000000 -0.000000 -0.000000 0.000000 -0.000000 -0.000000 -0.000001 0.000001 0.000000 0.000001 0.000000 0.000000 0.000001 0.000000 0.000000 0.000001 0.000000 
